<?xml version="1.0" standalone="no"?>
<!DOCTYPE svg PUBLIC "-//W3C//DTD SVG 20010904//EN"
 "http://www.w3.org/TR/2001/REC-SVG-20010904/DTD/svg10.dtd">
<svg version="1.0" xmlns="http://www.w3.org/2000/svg"
 width="1024.000000pt" height="1024.000000pt" viewBox="0 0 1024.000000 1024.000000"
 preserveAspectRatio="xMidYMid meet">

<g transform="translate(0.000000,1024.000000) scale(0.100000,-0.100000)"
fill="#000000" stroke="none">
<path d="M0 5120 l0 -5120 5120 0 5120 0 0 5120 0 5120 -5120 0 -5120 0 0
-5120z m5555 3194 c367 -179 645 -279 1265 -455 195 -55 360 -102 366 -104 19
-6 29 -558 15 -809 -20 -370 -57 -604 -140 -898 -143 -502 -355 -873 -706
-1237 -301 -311 -658 -574 -1138 -837 -85 -47 -101 -53 -120 -43 -104 54 -351
201 -482 287 -638 417 -1047 872 -1283 1428 -180 423 -262 836 -278 1394 -6
192 10 697 21 709 3 2 40 12 82 22 43 10 177 45 298 77 215 57 266 65 228 36
-17 -13 -17 -14 1 -7 15 5 18 3 13 -10 -3 -9 0 -36 9 -59 8 -23 12 -48 10 -54
-3 -7 0 -15 7 -17 19 -7 -25 -21 -250 -78 -174 -44 -213 -57 -217 -73 -12 -44
-5 -650 9 -816 18 -216 27 -284 66 -475 62 -300 157 -553 301 -805 280 -488
671 -850 1332 -1237 l159 -92 46 26 c238 138 529 331 700 468 289 231 532 497
699 764 61 99 182 325 182 342 0 5 -13 15 -28 23 -15 8 -34 26 -42 41 l-15 27
-123 -4 -124 -4 -25 31 c-38 47 -74 144 -62 167 5 10 14 18 19 18 12 0 35 -44
44 -85 4 -16 19 -43 34 -58 l27 -28 145 2 c96 2 152 -2 167 -9 12 -7 24 -12
26 -12 7 0 73 212 101 325 90 366 139 948 109 1323 l-6 82 -41 11 c-438 114
-938 276 -1221 396 -130 55 -433 203 -550 268 l-63 35 -63 -36 c-102 -58 -364
-187 -494 -244 -232 -101 -475 -189 -415 -150 10 6 11 10 3 10 -7 0 -13 6 -13
14 0 7 -8 31 -17 52 -9 22 -16 42 -15 47 1 4 -3 7 -8 7 -6 0 -10 7 -10 16 0
16 5 19 210 104 178 75 543 255 694 342 l129 75 121 -70 c67 -39 207 -112 311
-163z m-375 -164 c51 -44 30 -264 -43 -450 -91 -233 -233 -400 -567 -670 -282
-228 -410 -365 -478 -509 -93 -202 -73 -415 60 -623 22 -36 99 -121 176 -196
107 -105 133 -136 121 -142 -8 -5 -41 -29 -74 -54 -32 -25 -63 -46 -69 -46
-17 0 -218 209 -278 290 -122 163 -178 327 -178 521 0 205 51 343 193 519 91
113 148 166 352 332 150 122 294 254 373 342 80 89 167 228 201 320 28 78 51
215 51 302 0 37 3 42 43 62 53 27 87 28 117 2z m-1702 -26 c25 -28 30 -82 10
-114 -10 -15 -9 -26 5 -56 15 -30 16 -39 5 -45 -9 -6 -20 3 -35 29 -15 25 -31
38 -47 39 -40 3 -67 22 -82 58 -39 93 77 165 144 89z m481 -94 c20 -19 31 -40
31 -58 1 -93 79 -285 169 -414 52 -74 153 -184 249 -271 28 -26 52 -50 52 -52
0 -6 -123 -91 -143 -98 -13 -5 -46 21 -128 100 -180 174 -275 317 -332 498
-31 98 -52 225 -43 260 17 69 90 87 145 35z m936 -75 c0 -19 -8 -20 -167 -23
-93 -1 -168 0 -168 3 0 14 29 34 56 38 16 2 85 4 154 3 118 -1 125 -2 125 -21z
m-1860 -110 c14 -13 25 -29 25 -35 0 -17 -27 -65 -44 -79 -10 -8 -16 -30 -16
-55 0 -23 -4 -46 -9 -51 -5 -6 -11 -26 -14 -45 -2 -19 -5 3 -5 49 -2 81 -3 86
-33 110 -57 49 -33 131 38 131 23 0 42 -8 58 -25z m4303 -27 c18 -15 15 -59
-8 -96 -13 -21 -20 -51 -21 -85 0 -50 -15 -156 -18 -129 0 7 -5 10 -11 7 -6
-4 -10 29 -10 90 0 89 -2 100 -25 127 -14 16 -25 36 -25 43 0 9 -17 16 -47 20
-134 17 -142 23 -33 25 58 1 114 5 125 10 21 9 52 4 73 -12z m-2480 -75 l3
-23 -349 0 c-299 0 -351 2 -356 15 -12 31 28 35 364 32 l335 -2 3 -22z m-2342
-1 c25 -20 44 -53 44 -77 0 -10 -16 -33 -35 -52 l-35 -35 7 -139 6 -139 189
-185 c182 -177 217 -203 242 -178 3 4 -16 30 -45 59 -50 51 -51 52 -40 90 6
22 11 56 11 77 0 36 -1 37 -35 37 -82 0 -117 101 -54 154 51 44 116 29 145
-32 14 -31 15 -41 4 -67 -7 -16 -17 -70 -21 -120 l-9 -90 55 -52 c30 -29 55
-56 55 -61 0 -5 -18 -23 -40 -41 l-40 -32 0 -234 c0 -224 1 -237 25 -302 24
-68 36 -82 143 -173 28 -24 39 -40 34 -51 -6 -13 -38 7 -162 97 -85 63 -195
140 -245 171 l-90 58 -386 3 c-379 3 -387 2 -392 -17 -7 -28 -68 -56 -102 -47
-15 4 -38 18 -51 31 -33 33 -31 76 5 117 23 26 36 32 67 31 32 -1 45 -8 70
-37 l31 -35 374 -4 c206 -1 385 -7 397 -11 18 -7 -5 29 -83 131 l-106 140
-135 7 -135 7 -25 -30 c-68 -81 -203 -16 -164 79 29 69 101 81 157 25 l34 -34
141 -7 c163 -8 136 8 266 -164 128 -170 183 -231 251 -278 34 -23 64 -42 66
-42 2 0 -3 16 -11 35 -12 28 -14 88 -14 293 l0 257 -210 205 -210 206 0 151 0
151 -25 6 c-32 8 -58 49 -57 89 2 64 88 100 138 59z m5338 -13 c14 -17 26 -39
26 -49 0 -33 -22 -69 -50 -82 l-28 -12 -7 -150 -7 -151 -204 -206 -205 -205
-5 -265 c-3 -145 -10 -276 -14 -292 l-9 -27 42 29 c112 78 144 113 312 345 38
53 76 98 85 100 8 3 77 8 153 11 75 4 137 10 137 15 0 4 12 19 26 34 48 47
124 32 150 -30 12 -29 12 -39 0 -68 -28 -67 -99 -77 -152 -20 l-34 35 -135 -7
-135 -7 -93 -126 c-115 -156 -115 -156 -89 -142 14 7 142 11 396 11 l375 0 15
29 c8 15 28 34 45 41 96 40 175 -77 102 -151 -42 -41 -83 -39 -128 6 l-34 34
-375 1 -375 1 -47 -27 c-58 -34 -141 -91 -302 -209 -154 -113 -145 -108 -159
-91 -9 11 3 25 63 72 61 48 81 71 107 124 l32 65 5 232 c2 127 2 242 -2 256
-3 14 -21 35 -40 46 -69 43 -44 82 27 42 l40 -23 30 31 31 31 -25 27 c-40 45
-68 148 -49 184 10 17 9 28 -6 54 -50 94 71 181 147 106 60 -61 24 -151 -61
-151 l-40 0 0 -42 c0 -27 11 -64 28 -100 l29 -57 150 152 151 152 6 141 6 140
-29 21 c-34 26 -43 60 -25 101 15 37 39 51 86 52 28 0 42 -7 62 -31z m-3099
-184 c0 -19 -8 -20 -247 -23 -215 -2 -248 0 -262 14 -9 8 -14 20 -10 25 3 6
110 8 262 7 249 -3 257 -4 257 -23z m835 5 c18 -18 20 -33 20 -178 l0 -158 45
-37 c41 -35 45 -42 45 -82 0 -34 5 -47 20 -55 21 -11 25 -41 14 -98 -8 -38
-42 -51 -48 -19 -2 12 -9 46 -15 75 -6 30 -11 69 -11 87 0 30 -6 38 -45 61
l-45 26 0 103 c0 139 -5 161 -41 174 -45 16 -58 68 -26 109 15 19 65 14 87 -8z
m839 6 c7 -8 11 -30 9 -48 -2 -26 -10 -36 -35 -48 l-33 -15 0 -116 c0 -128 0
-129 -71 -178 l-47 -33 1 -100 c0 -69 -4 -102 -12 -108 -9 -5 -8 -9 4 -14 23
-9 77 -8 71 2 -9 15 23 68 74 121 68 70 88 107 82 152 -4 34 2 44 67 117 52
60 71 88 71 109 0 48 26 75 68 71 28 -2 40 -10 52 -30 22 -41 -1 -80 -55 -92
-32 -7 -53 -24 -105 -83 -36 -41 -66 -83 -68 -94 -2 -11 7 -40 19 -66 l22 -46
-27 -24 c-15 -12 -35 -23 -45 -23 -10 0 -43 -30 -74 -67 l-56 -66 22 -31 c22
-30 22 -37 22 -353 0 -311 -1 -322 -21 -350 -39 -52 -45 -53 -394 -53 -304 0
-327 1 -357 20 -17 10 -37 29 -43 42 -10 21 -10 22 4 4 8 -10 19 -15 24 -12
16 10 19 62 5 75 -7 7 -11 16 -8 22 4 5 -3 9 -13 9 -18 0 -20 11 -26 183 -15
453 -16 449 172 457 96 4 116 8 114 20 -2 8 -6 125 -9 260 -4 193 -8 250 -20
268 -18 29 -20 77 -3 97 27 33 90 8 90 -36 0 -11 -7 -34 -16 -52 -15 -27 -16
-55 -10 -207 5 -144 9 -177 22 -187 13 -9 15 -26 13 -82 l-4 -71 137 -3 c76
-2 143 0 149 4 8 5 10 25 6 59 -4 31 -2 61 4 73 6 11 12 36 14 56 3 51 10 62
61 99 l44 33 0 152 c0 140 2 155 20 175 24 25 72 29 89 8z m-291 -18 c14 -14
16 -80 3 -93 -5 -6 -11 -67 -13 -136 -2 -101 -6 -131 -20 -145 -20 -23 -28
-90 -15 -121 5 -12 6 -46 3 -77 -7 -53 -9 -56 -35 -56 -27 0 -28 2 -35 63 -5
49 -3 64 9 73 10 8 15 29 15 65 0 30 6 63 14 74 9 13 15 58 18 125 4 89 2 110
-14 135 -22 37 -23 54 -2 83 17 24 53 29 72 10z m-828 -88 c12 -12 20 -33 20
-52 0 -26 14 -48 67 -107 66 -72 67 -74 70 -137 4 -62 5 -65 57 -117 30 -29
63 -72 75 -94 18 -36 19 -42 5 -54 -17 -14 -13 -17 -78 68 -33 42 -57 64 -77
68 -38 9 -52 35 -39 72 6 15 18 33 26 40 21 15 9 36 -73 132 -52 61 -70 76
-94 77 -59 3 -92 70 -53 108 22 22 70 20 94 -4z m-1733 -85 c12 -9 27 -32 32
-53 9 -30 7 -44 -10 -79 l-21 -43 20 -53 c11 -29 26 -82 33 -117 12 -60 18
-71 83 -140 39 -41 92 -95 118 -121 29 -27 48 -54 48 -67 0 -12 -4 -22 -9 -22
-5 0 -64 56 -132 125 l-122 125 -23 92 c-37 146 -51 178 -80 178 -85 0 -124
117 -57 170 31 24 89 26 120 5z m1013 7 c0 -30 -125 -46 -171 -22 -39 21 -17
30 76 30 52 0 95 -4 95 -8z m1148 -155 c2 -9 -4 -20 -13 -23 -20 -8 -50 19
-40 36 10 17 49 8 53 -13z m256 -44 c-11 -129 -16 -163 -25 -158 -5 4 -9 34
-9 68 0 34 -4 78 -10 97 -10 36 -2 50 32 50 14 0 16 -8 12 -57z m-4108 2 c17
-22 299 -23 323 -1 36 33 79 14 85 -37 2 -24 34 -53 376 -341 189 -160 192
-162 188 -191 -3 -25 -6 -23 -88 49 -324 285 -497 426 -521 426 -14 0 -34 9
-44 20 -16 18 -31 20 -157 20 -125 0 -143 -2 -165 -20 -31 -24 -60 -26 -85 -3
-41 37 -3 111 50 98 15 -3 32 -12 38 -20z m6562 9 c42 -29 18 -104 -33 -104
-12 0 -34 9 -48 20 -22 18 -40 20 -161 20 -123 0 -138 -2 -156 -20 -11 -11
-31 -20 -45 -20 -27 0 -95 -55 -399 -319 -98 -86 -183 -156 -190 -156 -6 0
-12 7 -14 16 -3 15 240 232 486 433 45 38 72 67 72 80 0 45 63 74 90 41 10
-12 41 -15 159 -15 134 0 148 2 164 20 20 24 45 25 75 4z m-3294 -16 c9 -12
16 -30 16 -39 0 -14 48 -59 90 -84 7 -5 31 -8 53 -6 32 2 38 -1 35 -16 -2 -13
-14 -19 -46 -21 -37 -3 -49 2 -97 40 -42 32 -62 42 -84 40 -46 -5 -71 13 -71
51 0 42 15 57 56 57 23 0 38 -7 48 -22z m1720 6 c22 -21 20 -46 -5 -73 -17
-18 -29 -22 -54 -18 -34 6 -46 -1 -127 -66 -31 -24 -38 -26 -66 -16 -41 14
-40 25 2 32 40 6 132 73 142 102 17 52 75 73 108 39z m-2970 -66 c14 -6 28
-19 31 -30 6 -16 17 -18 88 -18 45 0 99 -5 121 -11 34 -10 37 -12 23 -26 -12
-13 -25 -13 -85 -4 -87 14 -142 14 -142 2 0 -6 15 -22 34 -36 52 -39 91 -94
77 -108 -8 -8 -26 5 -69 50 -52 56 -60 62 -96 60 -29 -1 -43 4 -57 22 -26 31
-24 57 6 86 27 28 34 30 69 13z m815 -92 c59 -44 204 -193 260 -269 52 -71
115 -201 136 -282 25 -91 30 -255 12 -350 -21 -112 -67 -226 -129 -320 -70
-107 -254 -290 -458 -456 -170 -138 -269 -232 -323 -307 -32 -44 -57 -49 -83
-16 -6 8 -14 14 -18 14 -4 0 -20 13 -36 30 -16 16 -34 30 -40 30 -32 0 85 144
196 242 33 29 132 112 220 185 343 284 465 451 494 678 27 210 -63 403 -289
622 l-115 111 59 61 c32 34 61 61 63 61 2 0 25 -15 51 -34z m-159 -196 c10
-19 8 -20 -38 -20 -57 0 -70 8 -39 26 34 19 65 16 77 -6z m583 -50 c17 -13 40
-20 70 -20 25 0 49 -4 52 -10 10 -16 116 -12 136 5 13 12 29 14 68 9 47 -6 51
-9 51 -34 0 -25 -4 -28 -52 -33 -29 -4 -57 -2 -63 3 -14 11 -224 15 -276 5
-58 -11 -112 48 -77 83 18 18 62 14 91 -8z m1745 8 c20 -20 14 -56 -14 -74
-21 -15 -31 -15 -58 -6 -48 18 -102 15 -147 -8 -38 -20 -41 -20 -68 -4 -19 11
-35 14 -47 9 -21 -9 -106 -7 -115 3 -4 4 -10 17 -13 28 -6 20 -2 22 48 28 52
7 58 5 95 -24 41 -33 48 -33 86 1 12 10 45 21 75 25 30 4 64 13 75 20 24 17
67 18 83 2z m-3323 -120 c23 -28 26 -38 22 -78 -6 -45 -6 -45 70 -121 60 -62
74 -81 71 -102 -4 -33 -6 -31 -97 71 -73 82 -73 82 -123 82 -65 0 -98 30 -98
90 0 86 100 124 155 58z m223 -56 c-2 -19 -9 -27 -23 -27 -25 0 -32 38 -14 71
12 24 12 24 26 4 8 -11 13 -33 11 -48z m960 40 c10 -14 10 -18 -5 -24 -23 -8
-385 -10 -446 -2 -41 6 -45 9 -37 25 12 22 106 28 330 22 120 -4 147 -7 158
-21z m1973 -52 c25 -14 25 -56 0 -70 -14 -7 -29 -6 -55 5 -40 17 -112 20 -121
5 -8 -13 -56 -13 -90 0 -20 7 -26 16 -23 33 4 28 50 34 124 17 49 -12 73 -9
142 19 2 0 12 -4 23 -9z m-1363 -17 c28 -4 42 -2 42 6 0 12 89 15 105 3 6 -4
11 -17 13 -29 3 -19 -3 -23 -44 -29 -30 -4 -54 -3 -66 5 -25 16 -73 14 -88 -4
-25 -30 -90 -8 -90 30 0 21 31 36 60 30 14 -3 44 -8 68 -12z m-528 -143 c23
-38 0 -40 -339 -38 l-326 3 -3 22 c-3 21 1 22 75 25 43 2 192 4 331 3 211 0
254 -2 262 -15z m661 -10 c14 0 19 -7 19 -29 0 -27 -4 -29 -46 -36 -29 -4 -50
-3 -57 4 -15 15 -133 14 -156 -1 -24 -15 -71 3 -71 27 0 8 1 15 3 16 1 0 49 3
107 6 58 3 110 9 115 15 6 5 23 7 39 4 16 -3 37 -6 47 -6z m1357 -38 c-4 -36
-49 -53 -76 -29 -15 14 -39 17 -115 17 -54 0 -105 -5 -115 -11 -12 -7 -32 -8
-62 -2 -39 7 -45 12 -45 33 l0 25 165 -3 c94 -2 171 1 179 6 9 7 24 6 43 0 24
-8 29 -15 26 -36z m-3356 -42 c11 -17 24 -20 85 -20 l72 0 66 -56 c62 -53 77
-82 48 -91 -7 -3 -37 20 -68 49 -53 51 -58 53 -123 58 -37 3 -74 2 -83 -4 -9
-5 -28 -6 -42 -2 -21 5 -27 12 -27 34 0 50 48 71 72 32z m2023 -110 l0 -25
-145 -1 c-80 -1 -154 -3 -165 -5 -15 -3 -21 2 -23 19 -3 21 0 22 65 24 37 1
87 2 111 1 23 -1 42 3 42 8 0 6 25 9 58 7 53 -3 57 -5 57 -28z m1042 19 c11
-11 185 -7 233 6 18 5 33 1 50 -13 22 -17 23 -23 12 -46 -9 -19 -19 -26 -41
-26 -16 0 -36 6 -44 14 -15 15 -186 25 -222 13 -35 -12 -109 6 -113 27 -2 10
2 22 10 27 19 12 102 11 115 -2z m-4336 -9 c10 -6 25 -23 33 -38 l15 -28 183
-12 c101 -7 200 -12 221 -12 42 0 74 -21 366 -234 93 -67 146 -112 148 -125 1
-12 0 -21 -5 -21 -4 0 -61 39 -127 87 -66 47 -172 123 -236 168 l-117 82 -216
13 -216 12 -29 -31 c-22 -24 -38 -31 -66 -31 -48 0 -95 44 -95 90 0 65 82 111
141 80z m5917 -10 c63 -59 26 -160 -59 -160 -33 0 -47 6 -70 32 l-30 31 -167
-12 c-92 -6 -188 -11 -213 -11 -44 0 -58 -8 -240 -138 -277 -197 -286 -203
-303 -196 -13 5 -14 8 -1 20 23 23 93 75 292 217 l188 134 130 6 c294 15 316
18 325 43 20 53 106 73 148 34z m-3309 -29 c8 -5 11 -16 8 -25 -6 -14 -43 -16
-335 -16 -261 0 -332 3 -341 13 -27 33 6 37 334 37 176 0 326 -4 334 -9z
m-1182 -97 c23 -23 25 -31 20 -77 -5 -52 -5 -53 46 -104 l50 -52 8 -113 c16
-218 15 -218 70 -265 46 -40 52 -42 93 -37 38 6 47 3 75 -23 80 -71 8 -182
-92 -144 -33 13 -58 64 -50 103 4 23 -4 36 -56 85 -57 54 -61 62 -61 103 0 24
-5 96 -11 159 l-12 116 -46 48 c-39 41 -50 47 -75 43 -39 -8 -92 19 -106 54
-38 92 77 174 147 104z m-1938 -21 c14 -11 32 -32 39 -46 12 -25 18 -27 78
-27 65 0 66 0 164 -71 l100 -71 324 12 324 12 74 -63 c122 -104 198 -174 198
-180 0 -3 -13 -4 -29 -1 -18 2 -64 37 -132 98 -57 52 -115 97 -129 101 -14 3
-164 1 -334 -5 l-308 -12 -99 70 c-96 68 -102 70 -159 70 -56 0 -62 -2 -93
-37 -29 -31 -41 -37 -88 -41 -53 -4 -56 -3 -87 32 -52 59 -42 135 23 174 27
17 102 8 134 -15z m6981 2 c33 -30 44 -72 31 -115 -16 -53 -52 -80 -107 -80
-40 0 -47 4 -72 40 l-27 39 -70 1 -70 0 -100 -71 -100 -71 -120 6 c-66 3 -212
8 -325 12 l-205 5 -112 -99 c-75 -66 -123 -101 -142 -104 -17 -2 -28 -1 -25 4
9 14 92 90 184 168 l85 72 210 -6 c116 -3 262 -9 325 -12 l115 -6 97 71 98 71
75 0 75 0 14 35 c26 60 119 83 166 40z m-3350 -24 c0 -12 -9 -20 -29 -24 -16
-3 -46 -22 -66 -42 -21 -19 -43 -34 -49 -32 -6 2 -11 19 -11 38 0 31 3 34 30
34 17 1 46 11 65 23 43 27 60 28 60 3z m1343 -11 c47 -32 64 -57 48 -73 -6 -6
-26 4 -54 27 -24 20 -51 36 -61 36 -19 0 -22 26 -3 33 21 9 25 8 70 -23z
m-1095 -94 c-18 -67 -30 -91 -53 -109 -5 -4 -59 -5 -120 -2 l-110 7 -52 -54
c-28 -29 -53 -64 -55 -77 -2 -13 -15 -33 -30 -44 -23 -17 -31 -19 -53 -9 -30
14 -39 33 -31 67 6 24 31 36 77 39 10 1 40 24 67 52 l49 51 104 7 c120 8 130
14 154 89 22 68 32 79 55 65 17 -11 17 -14 -2 -82z m144 60 c11 -16 10 -84 -2
-91 -5 -3 -10 -39 -10 -79 0 -69 -2 -75 -27 -91 -16 -10 -72 -61 -125 -113
-96 -94 -98 -96 -92 -133 9 -55 -2 -86 -36 -104 -92 -48 -181 35 -139 129 17
37 72 60 110 47 28 -10 33 -7 82 42 29 29 83 81 122 117 l70 65 -3 89 c-4 110
3 147 26 139 9 -4 20 -11 24 -17z m510 -103 l-4 -119 82 -87 c73 -76 87 -87
117 -87 40 0 88 -22 97 -45 24 -62 -9 -124 -70 -131 -51 -6 -85 13 -102 58
-12 31 -12 40 0 65 15 28 14 28 -72 118 l-87 90 -7 117 c-7 131 -3 149 27 144
21 -3 22 -7 19 -123z m-341 77 c3 -19 2 -42 -3 -51 -4 -9 -10 -79 -14 -155
l-7 -139 -243 -238 -244 -239 0 -358 c0 -296 -2 -359 -14 -363 -23 -9 -26 37
-26 395 l0 340 251 246 251 246 -7 157 c-8 176 -4 202 28 197 16 -2 23 -12 28
-38z m192 -50 c5 -61 4 -86 -4 -89 -23 -7 -49 -42 -49 -64 0 -14 16 -39 40
-62 l40 -39 0 -88 0 -87 -100 -97 c-72 -70 -99 -102 -94 -113 25 -59 9 -123
-37 -147 -27 -13 -29 -19 -30 -77 -1 -34 -2 -71 -3 -82 0 -11 -32 -43 -76 -78
-41 -32 -100 -77 -130 -101 -50 -39 -130 -71 -115 -46 7 11 94 80 218 172 l67
50 0 71 c0 68 -1 71 -37 102 -34 29 -38 38 -38 80 0 40 5 51 33 76 28 25 41
29 78 28 44 -3 46 -1 134 86 l90 90 0 70 c0 70 -1 72 -40 110 -38 37 -40 42
-40 98 0 50 3 60 20 64 23 6 36 41 21 56 -12 12 -15 90 -4 101 4 4 16 6 28 4
18 -3 21 -13 28 -88z m-1308 15 c0 -19 -8 -20 -270 -23 -148 -1 -280 0 -292 3
-25 6 -31 30 -10 38 6 3 138 5 292 4 273 -2 280 -3 280 -22z m-176 -194 c12
-8 12 -12 2 -25 -11 -13 -35 -16 -113 -16 -94 0 -138 9 -138 30 0 17 223 27
249 11z m3131 -56 c36 -19 51 -45 56 -101 3 -34 0 -48 -18 -67 -60 -64 -112
-64 -176 1 l-47 47 -237 3 -238 3 -82 -40 c-59 -29 -84 -37 -89 -29 -12 20 11
39 88 75 l72 33 250 0 c241 0 250 1 256 20 9 28 74 70 108 70 15 0 41 -7 57
-15z m-5086 -35 l43 -40 249 0 249 0 64 -37 c35 -21 65 -46 67 -55 3 -24 1
-23 -79 18 l-69 35 -233 -3 -233 -3 -36 -37 c-50 -51 -97 -63 -152 -39 -49 22
-64 45 -64 98 1 44 13 63 55 86 52 28 90 22 139 -23z m2436 -165 c33 -17 45
-49 36 -98 -6 -30 -1 -38 59 -97 36 -35 65 -68 65 -72 0 -23 -35 -1 -93 57
-60 60 -66 64 -100 58 -31 -5 -40 -1 -68 26 -26 27 -30 37 -25 63 13 67 67 94
126 63z m-1974 -143 c8 -11 26 -14 75 -10 l65 4 46 -76 c64 -104 201 -254 354
-387 122 -105 206 -186 175 -168 -11 6 -13 4 -8 -9 8 -20 -46 20 -133 100 -96
89 -212 175 -276 207 l-62 30 -203 -9 -204 -9 -78 58 c-64 47 -81 56 -97 47
-73 -39 -154 35 -116 108 30 59 121 59 151 1 9 -16 15 -39 13 -49 -2 -13 18
-35 72 -75 68 -51 78 -55 115 -50 68 9 369 10 395 2 23 -8 23 -6 -7 20 -35 31
-138 173 -148 203 -5 17 -15 20 -69 20 -44 0 -67 -5 -76 -15 -7 -8 -27 -15
-45 -15 -24 0 -34 6 -43 26 -31 66 60 106 104 46z m3134 -47 c0 -29 -19 -45
-52 -45 -31 0 -52 29 -40 57 4 10 18 29 32 43 l25 25 17 -30 c9 -16 17 -39 18
-50z m986 62 c22 -19 26 -29 20 -51 -8 -33 -46 -49 -81 -36 -14 5 -25 14 -25
20 0 6 -27 10 -64 10 l-64 0 -39 -62 c-22 -35 -60 -88 -84 -118 l-45 -55 75 3
c42 2 139 -1 215 -6 l139 -10 51 36 c77 54 96 73 96 98 0 85 92 124 151 65 56
-56 23 -143 -54 -143 -21 0 -44 5 -52 12 -11 9 -30 0 -97 -47 l-83 -60 -100 8
c-55 4 -147 8 -206 10 -155 2 -149 6 -499 -301 -35 -30 -57 -45 -49 -32 8 12
17 22 20 22 4 0 10 7 13 16 4 11 -2 10 -24 -6 -56 -40 -30 -13 88 91 241 214
322 301 415 447 l47 72 70 0 c57 0 74 4 90 20 26 26 43 25 76 -3z m-2496 -26
c63 -45 161 -144 225 -226 118 -151 187 -326 201 -508 7 -96 -2 -219 -15 -199
-8 13 -140 20 -158 9 -10 -6 -13 14 -13 88 0 240 -77 409 -287 624 -56 58
-103 111 -103 116 0 6 18 38 40 72 45 68 49 69 110 24z m490 -214 c0 -29 -3
-95 -7 -149 -4 -75 -9 -95 -19 -91 -18 7 -20 273 -2 291 19 19 28 3 28 -51z
m-667 26 c-7 -2 -21 -2 -30 0 -10 3 -4 5 12 5 17 0 24 -2 18 -5z m171 -149 c9
-8 14 -20 11 -25 -4 -5 -95 -9 -206 -9 -190 0 -199 1 -199 19 0 26 14 28 212
30 140 1 169 -2 182 -15z m806 -86 c0 -21 -34 -58 -54 -58 -24 0 -25 26 -4 69
20 40 21 41 39 25 11 -9 19 -25 19 -36z m1453 -76 c9 -8 17 -26 17 -40 0 -50
-54 -78 -98 -51 -14 9 -81 -22 -376 -171 -382 -194 -416 -209 -398 -187 7 8
10 16 7 19 -5 5 189 107 522 275 180 91 214 112 222 135 16 46 63 55 104 20z
m-3643 -2 c11 -11 20 -26 20 -32 0 -7 186 -107 412 -223 226 -115 418 -216
427 -223 14 -11 13 -12 -6 -3 -12 6 -28 9 -35 6 -7 -3 -193 85 -413 195 -257
128 -403 196 -409 190 -16 -16 -68 -12 -88 7 -22 20 -23 61 -1 85 21 24 68 23
93 -2z m1485 -32 c4 -4 5 -14 2 -23 -6 -13 -41 -15 -267 -15 -159 0 -259 4
-255 9 3 5 0 13 -7 18 -8 5 3 10 32 14 61 9 487 6 495 -3z m695 -163 c0 -78
-2 -85 -20 -85 -18 0 -20 7 -20 78 0 80 3 92 27 92 10 0 13 -21 13 -85z m-668
-48 c3 -6 4 -16 1 -24 -4 -10 -37 -13 -143 -13 -127 0 -139 2 -166 23 l-29 22
145 5 c152 6 181 4 192 -13z m1708 -1314 l0 -207 38 36 c64 62 114 81 200 76
68 -3 76 -6 102 -35 42 -47 50 -90 50 -280 0 -143 3 -174 16 -187 8 -9 22 -16
30 -16 8 0 14 -6 14 -14 0 -17 -72 -29 -152 -24 l-57 3 -3 203 -3 204 -28 24
c-50 42 -132 24 -182 -41 -24 -32 -25 -39 -25 -171 0 -128 2 -139 22 -161 12
-13 27 -23 35 -23 7 0 13 -7 13 -15 0 -16 -68 -21 -210 -15 -74 2 -83 6 -55
25 58 40 55 20 55 385 0 364 -1 371 -55 384 -14 4 -25 13 -25 20 0 13 96 31
188 35 l32 1 0 -207z m-705 -189 l0 -386 34 -29 c19 -16 31 -32 27 -36 -11
-11 -256 -11 -263 0 -3 5 8 20 26 34 l31 24 0 349 c0 373 1 369 -50 385 -11 3
-20 13 -20 20 0 15 34 21 145 23 l70 2 0 -386z m-3675 341 c0 -8 -6 -15 -13
-15 -7 0 -23 -9 -35 -20 -20 -19 -22 -30 -22 -150 l0 -130 170 0 171 0 -3 138
-3 137 -32 15 c-18 8 -33 21 -33 28 0 9 39 12 160 12 166 0 192 -7 126 -35
-18 -8 -36 -22 -40 -30 -3 -9 -6 -164 -6 -344 0 -279 2 -330 16 -349 8 -12 24
-22 35 -22 10 0 19 -7 19 -15 0 -13 -24 -15 -155 -15 -117 0 -155 3 -155 13 0
6 15 19 33 27 l32 15 3 178 2 177 -170 0 -170 0 0 -172 c0 -145 3 -174 17
-190 9 -10 24 -18 35 -18 10 0 18 -7 18 -15 0 -13 -24 -15 -155 -15 -151 0
-188 8 -132 29 47 18 47 18 45 382 l-3 344 -32 15 c-18 8 -33 21 -33 28 0 9
38 12 155 12 131 0 155 -2 155 -15z m1860 3 c0 -7 -15 -20 -33 -28 l-32 -15
-3 -137 -3 -138 166 0 165 0 0 133 c0 72 -4 137 -8 144 -4 6 -20 16 -35 22
-60 23 -26 31 133 31 136 0 160 -2 160 -15 0 -8 -9 -15 -20 -15 -11 0 -29 -9
-40 -20 -19 -19 -20 -33 -20 -352 0 -327 0 -332 22 -355 12 -13 30 -23 40 -23
10 0 18 -6 18 -14 0 -18 -41 -24 -160 -24 -151 0 -200 15 -131 39 16 6 32 16
34 24 5 12 10 208 8 313 l-1 42 -165 0 -165 0 2 -177 3 -178 32 -15 c18 -8 33
-22 33 -30 0 -16 7 -15 -232 -11 -62 1 -78 4 -78 16 0 8 8 15 18 15 11 0 26 8
35 18 15 16 17 58 19 355 2 314 1 338 -17 357 -10 11 -26 20 -37 20 -10 0 -18
7 -18 15 0 13 24 15 155 15 117 0 155 -3 155 -12z m4175 -23 c51 -50 17 -135
-54 -135 -51 0 -81 29 -81 80 0 72 84 107 135 55z m-2057 -167 l3 -68 79 0
c43 0 81 -4 85 -9 3 -5 0 -21 -6 -35 -12 -25 -16 -26 -86 -26 l-73 0 0 -178
c0 -204 5 -222 66 -222 19 0 49 7 65 16 17 8 38 13 46 9 13 -5 11 -11 -12 -35
-61 -64 -199 -94 -257 -56 -48 31 -60 84 -57 246 3 232 5 220 -36 220 -19 0
-35 4 -35 9 0 5 19 24 43 42 53 42 53 43 74 107 l17 53 40 -3 41 -3 3 -67z
m-3079 -77 c75 -39 121 -115 121 -202 0 -59 -14 -64 -188 -68 l-154 -3 7 -47
c9 -59 32 -100 76 -129 28 -20 44 -23 94 -20 35 2 79 13 105 26 63 31 78 12
26 -33 -50 -44 -120 -67 -205 -67 -147 0 -243 95 -258 254 -11 125 51 243 152
289 56 26 173 26 224 0z m363 -5 c4 -6 8 -28 8 -48 l0 -37 49 49 c52 52 84 64
161 58 l45 -3 3 -92 c3 -87 1 -93 -17 -93 -11 0 -28 14 -40 33 -46 75 -127 67
-177 -19 -22 -37 -24 -51 -24 -168 0 -135 7 -161 46 -176 55 -21 22 -30 -116
-30 -118 0 -140 2 -140 15 0 8 5 15 12 15 6 0 20 7 30 17 16 15 18 35 18 212
0 108 -4 201 -8 208 -4 6 -20 17 -36 23 -43 16 -21 29 70 44 80 13 103 11 116
-8z m1481 11 c71 -30 127 -121 127 -209 0 -54 -20 -61 -191 -66 l-145 -4 7
-56 c9 -64 32 -100 80 -124 52 -27 116 -23 183 11 46 23 59 26 63 15 3 -8 0
-21 -7 -29 -26 -31 -108 -74 -160 -83 -186 -34 -319 80 -320 273 0 68 4 89 29
140 49 104 113 144 229 145 40 0 87 -6 105 -13z m551 -1 c18 -8 46 -31 62 -52
l29 -37 5 -187 c5 -190 11 -220 46 -220 8 0 14 -9 14 -19 0 -17 -10 -20 -75
-26 -90 -9 -104 -4 -111 35 -4 16 -8 30 -9 30 -2 0 -26 -15 -54 -34 -92 -62
-191 -58 -250 9 -58 66 -51 159 17 215 45 37 82 48 190 56 l82 7 0 53 c0 69
-27 103 -87 111 -56 7 -95 -10 -138 -60 -19 -22 -37 -38 -40 -35 -3 3 -11 28
-19 56 l-13 51 41 17 c23 9 57 23 76 30 47 18 192 18 234 0z m2183 4 c15 -6
33 -18 40 -26 10 -13 12 -13 18 5 6 18 14 21 70 21 35 0 66 -4 69 -9 3 -4 1
-23 -4 -42 -11 -35 -79 -344 -87 -391 -4 -20 0 -28 16 -33 26 -8 57 13 82 54
12 20 24 29 33 25 14 -5 14 -9 2 -32 -17 -31 -81 -95 -113 -111 -12 -6 -41
-11 -64 -11 -54 0 -89 30 -89 75 l0 31 -49 -46 c-85 -83 -194 -89 -260 -15
-39 45 -45 69 -39 169 5 65 12 94 37 145 78 154 220 234 338 191z m537 -20
c-1 -14 -21 -106 -44 -205 -24 -99 -43 -196 -44 -215 -2 -53 27 -52 80 6 47
50 64 53 45 6 -51 -122 -221 -169 -261 -72 -14 34 -8 73 46 298 14 57 22 112
19 123 -4 12 -19 22 -36 26 -53 10 -33 30 49 46 42 9 93 15 112 14 31 -2 35
-5 34 -27z m-1017 -395 c29 -21 38 -66 19 -103 -25 -47 -75 -56 -120 -21 -53
41 -20 139 48 139 17 0 41 -7 53 -15z"/>
<path d="M5865 6900 c4 -6 11 -8 16 -5 14 9 11 15 -7 15 -8 0 -12 -5 -9 -10z"/>
<path d="M5694 6749 c-11 -13 -14 -63 -14 -270 0 -173 4 -249 10 -239 6 9 10
106 8 248 -1 164 2 236 10 244 13 13 521 13 534 0 4 -4 9 -118 11 -252 l2
-245 3 250 c1 138 -2 255 -6 262 -5 8 -86 12 -275 15 -235 3 -270 1 -283 -13z"/>
<path d="M5817 6657 c-3 -9 -16 -17 -27 -17 -20 0 -27 -14 -11 -24 13 -9 55
28 49 44 -3 11 -6 10 -11 -3z"/>
<path d="M6110 6657 c0 -14 49 -42 57 -33 6 6 -35 46 -47 46 -5 0 -10 -6 -10
-13z"/>
<path d="M5896 6642 c-2 -4 -1 -14 5 -22 7 -12 9 -10 9 8 0 23 -5 28 -14 14z"/>
<path d="M5810 6550 c0 -5 6 -10 14 -10 8 0 18 5 21 10 3 6 -3 10 -14 10 -12
0 -21 -4 -21 -10z"/>
<path d="M5895 6496 c-6 -14 -1 -33 17 -65 20 -37 31 -47 56 -49 26 -3 33 2
48 29 l16 32 -26 -20 c-44 -35 -84 -12 -96 55 -6 31 -8 34 -15 18z"/>
<path d="M6038 6477 c-3 -19 -2 -25 4 -19 6 6 8 18 6 28 -3 14 -5 12 -10 -9z"/>
<path d="M6110 6449 c0 -5 5 -7 10 -4 6 3 10 8 10 11 0 2 -4 4 -10 4 -5 0 -10
-5 -10 -11z"/>
<path d="M5770 6350 c0 -5 5 -10 10 -10 6 0 22 -12 35 -26 17 -18 25 -22 25
-12 0 17 -41 58 -58 58 -7 0 -12 -4 -12 -10z"/>
<path d="M5918 6349 c-10 -5 -18 -20 -18 -32 l0 -21 16 22 c23 34 86 31 113
-5 16 -22 20 -24 21 -10 0 30 -37 57 -77 57 -21 0 -46 -5 -55 -11z"/>
<path d="M6112 6348 c-7 -7 -12 -21 -11 -32 0 -12 3 -15 6 -8 3 7 16 17 30 23
13 5 21 13 18 19 -8 14 -28 13 -43 -2z"/>
<path d="M5757 6238 c-7 -4 87 -8 207 -8 121 0 217 2 214 6 -9 8 -408 10 -421
2z"/>
<path d="M2941 3137 c-34 -17 -59 -62 -67 -124 l-7 -53 69 0 c38 0 80 6 94 13
22 11 25 19 23 57 -3 59 -19 95 -49 109 -31 14 -33 14 -63 -2z"/>
<path d="M4785 3128 c-34 -27 -55 -75 -55 -129 l0 -42 75 5 c41 3 81 11 90 18
31 26 8 137 -33 159 -30 16 -46 14 -77 -11z"/>
<path d="M5314 2894 c-49 -24 -69 -88 -43 -137 27 -50 77 -51 125 -3 31 31 34
39 34 95 l0 61 -42 0 c-24 0 -57 -7 -74 -16z"/>
<path d="M7575 3138 c-62 -34 -105 -106 -131 -215 -19 -80 -15 -160 10 -198
16 -24 23 -27 54 -22 70 11 146 132 177 281 12 61 13 86 5 112 -17 51 -67 69
-115 42z"/>
</g>
</svg>
